<?xml version="1.0" encoding="iso-8859-1"?>
<!-- Generator: Adobe Illustrator 19.0.0, SVG Export Plug-In . SVG Version: 6.00 Build 0)  -->
<svg version="1.1" id="Layer_1" xmlns="http://www.w3.org/2000/svg" xmlns:xlink="http://www.w3.org/1999/xlink" x="0px" y="0px"
	 viewBox="0 0 511.999 511.999" style="enable-background:new 0 0 511.999 511.999;" xml:space="preserve">
<path style="fill:#F4B2B0;" d="M382.832,227.833H124.518v-10.034c0-71.332,57.826-129.158,129.157-129.158l0,0
	c71.332,0,129.158,57.826,129.158,129.158v10.034H382.832z"/>
<path style="fill:#B3404A;" d="M418.345,213.776h-21.517c-2.007-72.404-58.014-131.544-129.097-138.5v-32.69l41.411-15.343
	c7.279-2.697,10.993-10.785,8.296-18.065c-2.697-7.281-10.789-10.999-18.065-8.296l-50.583,18.742
	c-5.513,2.042-9.171,7.301-9.171,13.18v42.471c-71.083,6.956-127.09,66.096-129.097,138.5H93.656
	c-7.762,0-14.056,6.294-14.056,14.056s6.294,14.056,14.056,14.056h12.209l36.368,258.018c0.977,6.937,6.914,12.094,13.918,12.094
	H355.85c7.004,0,12.941-5.159,13.918-12.094l22.782-161.633c1.084-7.687-4.27-14.795-11.957-15.88
	c-1.04-0.146-2.068-0.167-3.074-0.089c-0.306-0.02-0.611-0.046-0.923-0.046H329.23c-7.762,0-14.056,6.294-14.056,14.056
	s6.294,14.056,14.056,14.056h33.225l-18.819,133.519H168.364l-18.819-133.519h120.061c7.762,0,14.056-6.294,14.056-14.056
	s-6.294-14.056-14.056-14.056H145.581l-11.329-80.371H382.83h35.513c7.762,0,14.056-6.294,14.056-14.056
	S426.108,213.776,418.345,213.776z M138.644,213.776c2.122-61.615,52.909-111.079,115.031-111.079s112.909,49.464,115.031,111.079
	H138.644z"/>
<g>
</g>
<g>
</g>
<g>
</g>
<g>
</g>
<g>
</g>
<g>
</g>
<g>
</g>
<g>
</g>
<g>
</g>
<g>
</g>
<g>
</g>
<g>
</g>
<g>
</g>
<g>
</g>
<g>
</g>
</svg>
