<?xml version="1.0" encoding="iso-8859-1"?>
<!-- Generator: Adobe Illustrator 19.0.0, SVG Export Plug-In . SVG Version: 6.00 Build 0)  -->
<svg version="1.1" id="Layer_1" xmlns="http://www.w3.org/2000/svg" xmlns:xlink="http://www.w3.org/1999/xlink" x="0px" y="0px"
	 viewBox="0 0 512 512" style="enable-background:new 0 0 512 512;" xml:space="preserve">
<g transform="translate(1 1)">
	<g>
		<g>
			<path d="M408.6,161.133H383v-15.36C383,88.6,336.067,41.667,278.04,41.667h-14.507v-25.6H306.2c5.12,0,8.533-3.413,8.533-8.533
				S311.32-1,306.2-1H255c-5.12,0-8.533,3.413-8.533,8.533v34.133h-15.36C173.933,41.667,127,88.6,127,145.773v15.36h-25.6
				c-5.12,0-8.533,3.413-8.533,8.533V203.8c0,5.12,3.413,8.533,8.533,8.533h9.411l29.136,254.943
				c-0.094,0.628-0.147,1.269-0.147,1.911l4.267,34.133c0.853,4.267,4.267,7.68,8.533,7.68h204.8c4.267,0,7.68-3.413,7.68-7.68
				l33.256-290.987H408.6c5.12,0,8.533-3.413,8.533-8.533v-34.133C417.133,164.547,413.72,161.133,408.6,161.133z M278.893,58.733
				c47.787,0,87.04,39.253,87.04,87.04v15.36h-9.143c-3.396-23.693-20.919-40.373-44.617-42.667
				c-6.102-22.12-25.162-38.774-48.64-42.062V58.733H278.893z M255,92.867c20.48,0,38.4,15.36,41.813,35.84
				c0.853,4.267,5.12,6.827,9.387,6.827c17.92,0,29.867,9.387,33.28,25.6H170.52c3.413-15.36,16.213-25.6,34.133-25.6
				c4.267,0.853,7.68-2.56,8.533-6.827C216.6,108.227,234.52,92.867,255,92.867z M144.067,145.773
				c0-47.787,39.253-87.04,87.893-87.04h14.507v17.679c-22.77,3.232-41.799,19.253-48.64,42.054
				c-23.616,3.047-41.098,19.702-44.58,42.667h-9.18V145.773z M160.28,493.933l-1.707-17.067h192.853l-1.707,17.067H160.28z
				 M353.651,459.8H156.35l-28.496-247.467h254.293L353.651,459.8z M400.067,195.267h-8.533H118.467h-8.533V178.2h25.6h25.6h187.733
				h25.6h25.6V195.267z"/>
			<path d="M255,408.6c42.667,0,76.8-34.133,76.8-76.8c0-42.667-34.133-76.8-76.8-76.8s-76.8,34.133-76.8,76.8
				C178.2,374.467,212.333,408.6,255,408.6z M255,272.067c33.28,0,59.733,26.453,59.733,59.733c0,33.28-26.453,59.733-59.733,59.733
				c-33.28,0-59.733-26.453-59.733-59.733C195.267,298.52,221.72,272.067,255,272.067z"/>
			<path d="M255,374.467c23.893,0,42.667-18.773,42.667-42.667c0-5.12-3.413-8.533-8.533-8.533c-5.12,0-8.533,3.413-8.533,8.533
				c0,14.507-11.093,25.6-25.6,25.6c-14.507,0-25.6-11.093-25.6-25.6c0-14.507,11.093-25.6,25.6-25.6
				c5.12,0,8.533-3.413,8.533-8.533s-3.413-8.533-8.533-8.533c-23.893,0-42.667,18.773-42.667,42.667
				C212.333,355.693,231.107,374.467,255,374.467z"/>
		</g>
	</g>
</g>
<g>
</g>
<g>
</g>
<g>
</g>
<g>
</g>
<g>
</g>
<g>
</g>
<g>
</g>
<g>
</g>
<g>
</g>
<g>
</g>
<g>
</g>
<g>
</g>
<g>
</g>
<g>
</g>
<g>
</g>
</svg>
