<?xml version='1.0' encoding='iso-8859-1'?>
<!DOCTYPE svg PUBLIC '-//W3C//DTD SVG 1.1//EN' 'http://www.w3.org/Graphics/SVG/1.1/DTD/svg11.dtd'>
<svg version="1.1" xmlns="http://www.w3.org/2000/svg" viewBox="0 0 261.389 261.389" xmlns:xlink="http://www.w3.org/1999/xlink" enable-background="new 0 0 261.389 261.389">
  <g>
    <path d="m232.89,164.602c0-21.342-15.853-39.043-36.399-41.967v-16.931c0-8.196-6.668-14.865-14.865-14.865h-138.263c-8.196,0-14.865,6.668-14.865,14.865v100.206c0,30.591 24.888,55.479 55.479,55.479h57.033c30.369,0 55.105-24.531 55.463-54.817 20.556-2.918 36.417-20.622 36.417-41.97zm-91.879,84.787h-57.033c-23.975,0-43.479-19.505-43.479-43.479v-100.206c0-1.58 1.285-2.865 2.865-2.865h138.263c1.58,0 2.865,1.285 2.865,2.865v100.206c-0.001,23.974-19.506,43.479-43.481,43.479zm55.48-54.985v-59.604c13.898,2.794 24.399,15.094 24.399,29.802s-10.501,27.009-24.399,29.802z
m92.46,42.595c5.002,8.288 2.798,16.105 0,21.262-1.761,3.246-3.752,5.439-4.315,6.029-2.295,2.376-2.239,6.163 0.13,8.469 1.167,1.135 2.676,1.7 4.185,1.7 1.563,0 3.124-0.607 4.3-1.815 8.432-8.663 19.271-30.154-0.057-49.482-3.06-3.06-4.433-6.451-4.082-10.078 0.293-3.02 1.819-6.174 4.082-8.437 2.343-2.343 2.343-6.142 0-8.485-2.343-2.343-6.143-2.343-8.485,0-4.23,4.231-6.979,9.976-7.54,15.764-0.491,5.066 0.418,12.6 7.54,19.722 1.791,1.79 3.173,3.581 4.242,5.351z"/>
    <path d="m129.423,42.595c5.002,8.288 2.798,16.106 0,21.262-1.761,3.246-3.752,5.439-4.315,6.029-2.295,2.376-2.239,6.163 0.13,8.469 1.167,1.135 2.676,1.7 4.185,1.7 1.563,0 3.124-0.607 4.3-1.815 8.432-8.663 19.271-30.154-0.057-49.482-3.06-3.06-4.433-6.451-4.082-10.078 0.293-3.02 1.819-6.174 4.082-8.437 2.343-2.343 2.343-6.142 0-8.485-2.343-2.343-6.143-2.343-8.485,0-4.23,4.231-6.979,9.976-7.54,15.764-0.491,5.066 0.418,12.6 7.54,19.722 1.791,1.79 3.174,3.581 4.242,5.351z"/>
    <path d="m59.557,111.823c-3.313,0-6,2.687-6,6v84.179c0,3.313 2.687,6 6,6s6-2.687 6-6v-84.179c0-3.313-2.687-6-6-6z"/>
  </g>
</svg>
