<?xml version="1.0" encoding="iso-8859-1"?>
<!-- Generator: Adobe Illustrator 17.1.0, SVG Export Plug-In . SVG Version: 6.00 Build 0)  -->
<!DOCTYPE svg PUBLIC "-//W3C//DTD SVG 1.1//EN" "http://www.w3.org/Graphics/SVG/1.1/DTD/svg11.dtd">
<svg version="1.1" id="Capa_1" xmlns="http://www.w3.org/2000/svg" xmlns:xlink="http://www.w3.org/1999/xlink" x="0px" y="0px"
	 viewBox="0 0 476.8 476.8" style="enable-background:new 0 0 476.8 476.8;" xml:space="preserve">
<path d="M241.331,256.578l-44.943-44.943c-3.124-3.124-8.189-3.124-11.313,0l-44.943,44.943c-3.125,3.124-3.125,8.189,0,11.313
	l44.943,44.943c1.562,1.562,3.609,2.343,5.657,2.343s4.095-0.781,5.657-2.343l44.943-44.943
	C244.455,264.767,244.455,259.702,241.331,256.578z M190.731,295.864l-33.629-33.629l33.629-33.629l33.629,33.629L190.731,295.864z
	 M286.069,317.793H222.51c-4.418,0-8,3.582-8,8v63.559c0,4.418,3.582,8,8,8h63.559c4.418,0,8-3.582,8-8v-63.559
	C294.069,321.375,290.487,317.793,286.069,317.793z M278.069,381.352H230.51v-47.559h47.559V381.352z M365.517,0h-70.51
	c-18.101,0-32.828,14.727-32.828,32.828v46.621H111.283c-4.418,0-8,3.582-8,8V468.8c0,4.418,3.582,8,8,8h222.455
	c4.418,0,8-3.582,8-8V87.448c0-4.418-3.582-8-8-8h-55.559V32.828c0-9.279,7.549-16.828,16.828-16.828h70.51c4.418,0,8-3.582,8-8
	S369.936,0,365.517,0z M262.179,95.448v70.689c-0.854-0.019-1.704-0.04-2.594-0.04c-20.32,0-31.026,5.018-40.472,9.446
	c-9.082,4.257-16.924,7.933-33.681,7.933c-16.755,0-24.598-3.676-33.679-7.933c-8.118-3.806-17.186-8.038-32.47-9.155V95.448
	H262.179z M119.283,460.8v-22.974H254.29c4.418,0,8-3.582,8-8s-3.582-8-8-8H119.283V182.422c11.517,0.981,18.183,4.094,25.679,7.607
	c9.445,4.428,20.151,9.446,40.47,9.446c20.32,0,31.026-5.018,40.472-9.446c9.082-4.257,16.925-7.933,33.681-7.933
	c0.894,0,1.75,0.016,2.594,0.036V289.6c0,4.418,3.582,8,8,8s8-3.582,8-8V184.175c5.708,1.471,10.226,3.577,15.087,5.855
	c8.119,3.806,17.187,8.038,32.472,9.155v222.641H302.4c-4.418,0-8,3.582-8,8s3.582,8,8,8h23.338V460.8H119.283z M325.738,95.448
	v87.702c-11.518-0.981-18.184-4.094-25.681-7.607c-6.043-2.833-12.616-5.9-21.878-7.748V95.448H325.738z"/>
<g>
</g>
<g>
</g>
<g>
</g>
<g>
</g>
<g>
</g>
<g>
</g>
<g>
</g>
<g>
</g>
<g>
</g>
<g>
</g>
<g>
</g>
<g>
</g>
<g>
</g>
<g>
</g>
<g>
</g>
</svg>
