<?xml version="1.0" encoding="iso-8859-1"?>
<!-- Generator: Adobe Illustrator 18.0.0, SVG Export Plug-In . SVG Version: 6.00 Build 0)  -->
<!DOCTYPE svg PUBLIC "-//W3C//DTD SVG 1.1//EN" "http://www.w3.org/Graphics/SVG/1.1/DTD/svg11.dtd">
<svg version="1.1" id="Capa_1" xmlns="http://www.w3.org/2000/svg" xmlns:xlink="http://www.w3.org/1999/xlink" x="0px" y="0px"
	 viewBox="0 0 491.589 491.589" style="enable-background:new 0 0 491.589 491.589;" xml:space="preserve">
<path d="M372.321,160.247c11.708-2.967,20.169-11.065,20.169-20.53c0-10.961-11.343-20.088-25.94-21.537
	c-15.372-56.907-64.441-98.637-122.442-98.637c-14.613,0-28.657,2.657-41.741,7.53V13.5c0-7.456-6.044-13.5-13.5-13.5
	c-7.456,0-13.5,6.044-13.5,13.5v27.655c-25.79,17.769-45.241,45.222-53.841,77.527c-12.864,2.448-22.427,10.971-22.427,21.035
	c0,9.597,8.698,17.788,20.661,20.651l5.658,46.8h49.949v30h-45.98l29.722,224.681c2.163,16.357,17.434,29.741,33.934,29.741h113.026
	c16.5,0,31.491-13.417,33.313-29.816l24.958-224.605H202.367v-30h165.306L372.321,160.247z M244.107,46.543
	c43.101,0,79.943,29.762,94.169,71.431h-135.91V56.461C215.086,50.098,229.223,46.543,244.107,46.543z M175.367,76.294v41.68
	h-25.428C155.395,101.993,164.179,87.765,175.367,76.294z"/>
<g>
</g>
<g>
</g>
<g>
</g>
<g>
</g>
<g>
</g>
<g>
</g>
<g>
</g>
<g>
</g>
<g>
</g>
<g>
</g>
<g>
</g>
<g>
</g>
<g>
</g>
<g>
</g>
<g>
</g>
</svg>
